<mxfile host="app.diagrams.net" modified="2023-11-16T22:42:08.206Z" agent="Mozilla/5.0 (Windows NT 10.0; Win64; x64) AppleWebKit/537.36 (KHTML, like Gecko) Chrome/119.0.0.0 Safari/537.36" etag="AEYbKt_43bcm2VOEzd05" version="22.1.2" type="github">
  <diagram name="PÃ¡gina-1" id="SZONqNHoEBk2e5Q26ZTf">
    <mxGraphModel dx="1050" dy="542" grid="1" gridSize="10" guides="1" tooltips="1" connect="1" arrows="1" fold="1" page="1" pageScale="1" pageWidth="827" pageHeight="1169" math="0" shadow="0">
      <root>
        <mxCell id="0" />
        <mxCell id="1" parent="0" />
        <mxCell id="dYLYo-6RRwzFp5xRImiS-1" value="CAPEX AUTOMATIZACION SECUENCIA" style="swimlane;childLayout=stackLayout;resizeParent=1;resizeParentMax=0;horizontal=0;startSize=20;horizontalStack=0;html=1;" vertex="1" parent="1">
          <mxGeometry y="10" width="650" height="610" as="geometry" />
        </mxCell>
        <mxCell id="dYLYo-6RRwzFp5xRImiS-2" value="MULTIRUBRO" style="swimlane;startSize=20;horizontal=0;html=1;" vertex="1" parent="dYLYo-6RRwzFp5xRImiS-1">
          <mxGeometry x="20" width="630" height="210" as="geometry" />
        </mxCell>
        <mxCell id="dYLYo-6RRwzFp5xRImiS-5" value="DATOS" style="swimlane;startSize=20;horizontal=0;html=1;" vertex="1" parent="dYLYo-6RRwzFp5xRImiS-1">
          <mxGeometry x="20" y="210" width="630" height="200" as="geometry" />
        </mxCell>
        <mxCell id="dYLYo-6RRwzFp5xRImiS-3" value="SUSTENTO" style="swimlane;startSize=20;horizontal=0;html=1;" vertex="1" parent="dYLYo-6RRwzFp5xRImiS-1">
          <mxGeometry x="20" y="410" width="630" height="200" as="geometry" />
        </mxCell>
      </root>
    </mxGraphModel>
  </diagram>
</mxfile>
